<svg xmlns="http://www.w3.org/2000/svg" xmlns:svg="http://www.w3.org/2000/svg" id="Layer_1" width="1001.976" height="921.574" x="0" y="0" version="1.1" viewBox="0 0 1001.976 921.574" xml:space="preserve"><style id="style2" type="text/css">.st0{fill:#fff}</style><g id="g28" transform="translate(-99.045783,-139.22635)"><g id="g18"><path id="path4" d="M 859.1,490.3 425.7,370.2 c -11.7,-3.3 -23.9,3.6 -27.1,15.4 l -49.1,177 c -3.3,11.7 3.6,23.9 15.4,27.1 l 433.4,120.1 c 11.7,3.3 23.9,-3.6 27.1,-15.4 l 49.1,-177 c 3.2,-11.7 -3.7,-23.8 -15.4,-27.1 z m -253.7,46.1 c -11.2,40.3 -47.9,66.8 -87.8,66.8 -8,0 -16.2,-1.1 -24.3,-3.3 -23.5,-6.5 -43,-21.7 -55,-42.9 -12,-21.2 -15,-45.8 -8.5,-69.2 13.4,-48.4 63.7,-76.9 112.1,-63.5 48.5,13.4 76.9,63.7 63.5,112.1 z m 195,57 c -11.2,40.3 -47.9,66.8 -87.8,66.8 -8,0 -16.2,-1.1 -24.3,-3.3 -48.4,-13.4 -76.9,-63.7 -63.5,-112.1 6.5,-23.5 21.7,-43 42.9,-55 21.2,-12 45.8,-15 69.2,-8.5 23.5,6.5 43,21.7 55,42.9 12,21.1 15,45.7 8.5,69.2 z"/><path id="path6" d="m 731.4,501.1 c -6.3,-1.7 -12.6,-2.6 -18.9,-2.6 -12,0 -23.9,3.1 -34.6,9.2 -16.4,9.3 -28.2,24.4 -33.2,42.6 -10.4,37.5 11.7,76.4 49.1,86.8 37.5,10.4 76.4,-11.7 86.8,-49.1 5,-18.2 2.7,-37.2 -6.6,-53.6 -9.3,-16.5 -24.4,-28.3 -42.6,-33.3 z"/><path id="path8" d="m 536.5,444.1 c -6.3,-1.7 -12.6,-2.6 -18.8,-2.6 -30.9,0 -59.4,20.5 -68,51.7 -5,18.2 -2.7,37.2 6.6,53.6 9.3,16.4 24.4,28.2 42.6,33.2 37.5,10.4 76.4,-11.7 86.8,-49.1 10.3,-37.5 -11.8,-76.4 -49.2,-86.8 z"/><path id="path10" d="m 717.7,1022.5 h 1.3 c 2.8,0 4.9,-2.6 4.3,-5.4 L 718.7,996 v 0 h -67.5 v 0 l 4.6,22.9 c 0.4,2.1 2.2,3.5 4.3,3.5 h 2.8 c -10.7,7.6 -18,19.6 -19.4,33.3 -0.3,2.6 1.8,4.9 4.4,4.9 h 84.8 c 2.6,0 4.7,-2.3 4.4,-4.9 -1.4,-13.6 -8.7,-25.5 -19.4,-33.2 z"/><path id="path12" d="m 488.6,1022.5 h 2.8 c 2.1,0 3.9,-1.5 4.3,-3.5 l 4.6,-22.9 v 0 h -67.5 v 0 l -4.6,21.1 c -0.6,2.8 1.5,5.4 4.3,5.4 h 1.3 c -10.7,7.6 -18,19.6 -19.4,33.3 -0.3,2.6 1.8,4.9 4.4,4.9 h 84.8 c 2.6,0 4.7,-2.3 4.4,-4.9 -1.4,-13.8 -8.7,-25.7 -19.4,-33.4 z"/><path id="path14" d="m 234.3,588.8 -9.6,13.3 c -0.5,0.7 -0.3,1.6 0.3,2.1 l 4.8,3.6 -36.3,15 c -5.3,2.2 -7.7,8.2 -5.6,13.4 2.2,5.2 8.2,7.7 13.4,5.6 l 37.2,-15.4 -4,39.7 c -0.6,5.7 3.6,10.7 9.2,11.3 0.3,0 0.7,0.1 1,0.1 5.2,0 9.7,-4 10.2,-9.3 l 3.9,-38.9 5.1,3.7 c 0.7,0.5 1.6,0.3 2.1,-0.3 l 9.4,-13.1 z"/><path id="path16" d="m 910,851.1 -19.7,-33.9 6.2,0.1 c 0.8,0 1.5,-0.6 1.5,-1.4 l 0.1,-16.4 -51.3,-0.7 -0.2,16.2 c 0,0.8 0.6,1.5 1.4,1.5 l 6,0.1 -20.5,33.3 c -3,4.8 -1.5,11.2 3.4,14.2 4.8,3 11.2,1.5 14.2,-3.4 l 20.9,-33.9 20.2,34.8 c 1.9,3.3 5.4,5.1 8.9,5.1 1.8,0 3.5,-0.4 5.2,-1.4 4.8,-3 6.5,-9.3 3.7,-14.2 z"/></g><g id="g26"><path id="path20" d="m 541.9,424.2 c -48.4,-13.4 -98.7,15.1 -112.1,63.5 -6.5,23.5 -3.5,48 8.5,69.2 12,21.2 31.5,36.4 55,42.9 8.1,2.2 16.3,3.3 24.3,3.3 39.9,0 76.7,-26.5 87.8,-66.8 13.4,-48.3 -15,-98.6 -63.5,-112.1 z m 43.7,106.7 c -10.4,37.5 -49.3,59.5 -86.8,49.1 -18.2,-5 -33.3,-16.8 -42.6,-33.2 -9.3,-16.4 -11.6,-35.4 -6.6,-53.6 8.6,-31.2 37.1,-51.7 68,-51.7 6.2,0 12.5,0.8 18.8,2.6 37.5,10.4 59.6,49.3 49.2,86.8 z" class="st0"/><path id="path22" d="m 736.9,481.2 c -23.5,-6.5 -48,-3.5 -69.2,8.5 -21.2,12 -36.4,31.5 -42.9,55 -13.4,48.4 15.1,98.7 63.5,112.1 8.1,2.2 16.3,3.3 24.3,3.3 39.9,0 76.7,-26.5 87.8,-66.8 6.5,-23.5 3.5,-48 -8.5,-69.2 -12,-21.1 -31.5,-36.4 -55,-42.9 z m 43.7,106.7 c -10.4,37.5 -49.3,59.5 -86.8,49.1 -37.5,-10.4 -59.5,-49.3 -49.1,-86.8 5,-18.2 16.8,-33.3 33.2,-42.6 10.7,-6.1 22.6,-9.2 34.6,-9.2 6.3,0 12.7,0.9 18.9,2.6 18.2,5 33.3,16.8 42.6,33.2 9.2,16.5 11.6,35.5 6.6,53.7 z" class="st0"/><path id="path24" d="M 1089.5,726.8 900,601.4 978.6,317.7 c 6.5,-23.3 -16.4,-44 -38.9,-35.3 l -287.1,111.2 -189,-243 c -14.8,-19.1 -45.1,-13.1 -51.5,10.2 L 337.7,429.4 126.5,415 c -11.4,-0.8 -22,6.1 -25.9,16.8 -3.9,10.8 -0.3,22.8 9,29.6 2.5,1.9 62.6,45.8 100.7,68.4 1.7,1 3.3,2 5.1,3 12.5,7.3 31.3,18.4 33.4,27.7 0.9,4.2 -1.5,10.7 -6.8,18.4 l -7.4,9.9 41.3,30.6 7.6,-10.1 c 0.2,-0.2 0.3,-0.5 0.5,-0.7 4.6,-6.6 8.2,-13.1 10.9,-19.6 -1.4,23.7 13.8,46.1 37.6,52.7 l 164.6,45.6 -63.9,308.8 h 67.5 l 60,-291.1 32.2,8.9 58.4,282.2 h 67.5 l -54.3,-262.3 135.1,37.4 c 20.3,5.6 41,-1.7 53.5,-17 -3.6,9 -5.6,19.3 -6.2,31 0,0.3 0,0.6 0,0.9 l -0.1,12.7 51.3,0.7 0.3,-12.4 c 0.5,-9.4 2.5,-16 5.8,-18.8 7.3,-6.2 29,-3.5 43.3,-1.8 2,0.2 3.9,0.5 5.8,0.7 44,5.1 118.4,6.7 121.5,6.7 0.2,0 0.3,0 0.5,0 11.2,0 21.2,-7.3 24.5,-18.1 3.5,-10.9 -0.7,-22.7 -10.3,-29 z m -789.4,-162 c 0.2,-5.2 -0.2,-10.3 -1.3,-15.4 -6.9,-31.3 -36.2,-48.5 -57.6,-61 -1.6,-1 -3.2,-1.9 -4.8,-2.8 -6.3,-3.8 -13.4,-8.2 -20.7,-13 l 107.9,7.4 z m 525.3,129.7 c -3.3,11.7 -15.4,18.6 -27.1,15.4 L 364.9,589.8 c -11.7,-3.3 -18.6,-15.4 -15.4,-27.1 l 49.1,-177 c 3.3,-11.7 15.4,-18.6 27.1,-15.4 l 433.4,120.1 c 11.7,3.3 18.6,15.4 15.4,27.1 z m 133.8,21.6 c -1.8,-0.2 -3.7,-0.4 -5.5,-0.7 -24.6,-3 -58.3,-7.1 -82.8,13.6 -3.4,2.8 -6.4,6 -9,9.5 0.4,-1 0.7,-2.1 1,-3.2 l 22.7,-81.8 98,64.8 c -8.8,-0.6 -17.1,-1.3 -24.4,-2.2 z" class="st0" style="fill:#bfbfbf;fill-opacity:1"/></g></g></svg>