<svg xmlns="http://www.w3.org/2000/svg" xmlns:svg="http://www.w3.org/2000/svg" id="Layer_1" width="703.949" height="899.14" x="0" y="0" version="1.1" viewBox="0 0 703.949 899.14" xml:space="preserve"><style id="style2" type="text/css">.st0{fill:#fff}.st1{fill:#7f52ff}</style><g id="g26" transform="translate(-247.93359,-150.36021)"><g id="g10"><path id="path4" d="M 936.3,586.7 812.7,171.4 C 805.8,148.2 775.5,142.8 761,162.2 L 576.7,408.7 287.5,303.1 c -22.7,-8.3 -45.2,12.8 -38.3,36 l 123.6,415.3 c 7.3,24.6 31.5,39.7 56.2,36.3 v 106.9 c -0.4,7.5 -0.7,36.6 19.3,58.6 9.4,10.3 26.8,21.8 56.3,23 l 1.8,-51.2 c -9.1,-0.3 -16.2,-2.3 -20,-6.3 -5.6,-6 -6,-17.4 -6,-21 V 776.1 l 113,-33.6 c -2.6,26.1 -4.8,55.6 -5.3,85.4 -0.8,49.3 10.7,121.7 17,157.2 h 67.2 C 667.5,959.3 653.4,878.3 654.2,829 c 0.6,-38.3 4.3,-76.9 8,-107 l 44.7,-13.3 c -4.1,32.4 -8.4,75.6 -9.1,119.2 -0.8,49.3 10.7,121.7 17,157.2 H 782 C 777.2,959.3 763.1,878.4 763.9,829 c 0.9,-55.2 8.2,-111.1 12.7,-141 l 13.2,-3.9 13.1,218.9 c 0,7.5 1.5,36.6 22.8,57.3 9.4,9.2 26,19.7 52.6,19.7 2,0 4.1,-0.1 6.3,-0.2 l -3.1,-51.2 c -9.2,0.5 -15.9,-1.2 -19.9,-5 -6,-5.7 -7.3,-16.8 -7.3,-20.5 l -13.9,-234 61.1,-18.2 c 27.4,-8.3 42.9,-37 34.8,-64.2 z M 437.4,727.6 c 2.9,8.6 4.7,16.2 4.3,20.4 -0.8,8.8 -5.7,16.2 -12.7,20.6 -5,3.2 -11,4.8 -17.3,4.2 -15.1,-1.4 -26.2,-14.8 -24.8,-30 0.2,-2.5 1.2,-6 2.6,-10.1 0,0 0,0 0,0 -3.2,-2.3 -5.8,-5.5 -7.4,-9.4 -0.3,-0.7 -0.5,-1.4 -0.8,-2.1 L 329,545.1 c -2.3,-7.8 -0.1,-15.9 5.2,-21.5 0.8,-0.8 1.6,-1.5 2.4,-2.2 2.1,-1.6 4.5,-2.9 7.2,-3.7 L 724.1,404.5 c 0.7,-0.2 1.3,-0.3 2,-0.5 0.2,0 0.4,-0.1 0.6,-0.1 0.5,-0.1 1,-0.2 1.5,-0.2 0.2,0 0.3,0 0.5,-0.1 0.6,-0.1 1.3,-0.1 1.9,-0.1 0.2,0 0.4,0 0.6,0 0.5,0 1,0 1.4,0.1 0.2,0 0.5,0.1 0.7,0.1 0.4,0.1 0.9,0.1 1.3,0.2 0.2,0 0.5,0.1 0.7,0.1 0.4,0.1 0.9,0.2 1.3,0.3 0.2,0.1 0.4,0.1 0.6,0.2 0.6,0.2 1.2,0.4 1.8,0.7 0.1,0 0.1,0 0.1,0.1 0.5,0.2 1.1,0.5 1.6,0.8 0.2,0.1 0.4,0.2 0.5,0.3 0.4,0.2 0.8,0.4 1.1,0.7 0.2,0.1 0.4,0.3 0.6,0.4 0.4,0.3 0.7,0.5 1.1,0.8 0.2,0.1 0.3,0.3 0.5,0.4 0.4,0.3 0.8,0.7 1.1,1 0.1,0.1 0.2,0.2 0.3,0.3 0.5,0.5 0.9,1 1.3,1.5 0.1,0.1 0.2,0.3 0.3,0.4 0.3,0.4 0.6,0.8 0.9,1.2 0.1,0.2 0.3,0.4 0.4,0.6 0.2,0.4 0.5,0.8 0.7,1.2 0.1,0.2 0.2,0.4 0.3,0.6 0.2,0.4 0.4,0.9 0.6,1.3 0.1,0.2 0.2,0.4 0.3,0.6 0.3,0.6 0.5,1.3 0.7,2 l 51.9,174.4 0.5,1.6 c 1,3.5 1.1,7 0.5,10.3 -1.5,7.9 -7.2,14.7 -15.4,17.2 l -2.7,0.8 z" class="st0" style="fill:#bfbfbf;fill-opacity:1"/><path id="path6" d="m 667.1,614 c 23.3,-6.9 42.6,-22.6 54.1,-44 11.6,-21.4 14.1,-46 7.2,-69.4 -1.6,-5.4 -7.4,-8.5 -12.8,-6.9 -5.4,1.6 -8.5,7.3 -6.9,12.8 5.4,18.1 3.4,37.1 -5.6,53.7 -9,16.6 -23.9,28.7 -41.9,34 -37.3,11.1 -76.6,-10.2 -87.7,-47.5 -1.6,-5.4 -7.4,-8.5 -12.8,-6.9 -5.4,1.6 -8.5,7.3 -6.9,12.8 11.8,39.5 48.1,65.1 87.4,65.1 8.5,0.1 17.3,-1.1 25.9,-3.7 z" class="st0"/><path id="path8" d="m 526.9,550 c -5.4,1.6 -8.5,7.3 -6.9,12.8 5.4,18.1 3.4,37.1 -5.6,53.7 -7.6,14 -19.4,24.8 -33.9,31.1 -2.6,1.1 -5.3,2.1 -8.1,3 -14.4,4.3 -29.5,3.9 -43.4,-1 -3.5,-1.2 -7,-2.7 -10.3,-4.6 -16.6,-9 -28.7,-23.9 -34,-41.9 -1.6,-5.4 -7.4,-8.5 -12.8,-6.9 -5.4,1.6 -8.5,7.3 -6.9,12.8 6.9,23.3 22.6,42.6 44,54.1 6.5,3.5 13.2,6.2 20.1,8 7.6,2 15.3,3 23.1,3 8.7,0 17.5,-1.3 26.1,-3.8 0.7,-0.2 1.5,-0.5 2.2,-0.7 22.3,-7.3 40.7,-22.5 52,-43.3 11.6,-21.4 14.1,-46 7.2,-69.4 -1.7,-5.4 -7.4,-8.5 -12.8,-6.9 z" class="st0"/></g><g id="g22"><path id="path12" d="m 572.1,920.9 c -2.8,-5 -9,-6.7 -14,-4 l -34.3,19.2 0.2,-6 c 0,-0.8 -0.6,-1.5 -1.4,-1.5 l -16.2,-0.6 -1.8,51.2 16.1,0.8 c 0.8,0 1.5,-0.6 1.5,-1.4 l 0.2,-6.3 33,21.1 c 1.7,1.1 3.6,1.6 5.5,1.6 3.4,0 6.7,-1.7 8.7,-4.7 3.1,-4.8 1.7,-11.1 -3.1,-14.2 L 533,954.5 568.1,934.9 c 5,-2.8 6.8,-9.1 4,-14 z"/><path id="path14" d="m 946.2,969.3 -35.8,-17.5 32.7,-23.5 c 4.6,-3.3 5.7,-9.7 2.3,-14.4 -3.3,-4.6 -9.7,-5.7 -14.4,-2.3 l -31.9,22.9 -0.5,-6 c -0.1,-0.8 -0.8,-1.4 -1.6,-1.3 l -15.4,1.2 3.1,51.2 16.4,-1.2 c 0.8,-0.1 1.4,-0.8 1.3,-1.6 l -0.5,-6.3 35.1,17.2 c 1.5,0.7 3,1 4.5,1 3.8,0 7.5,-2.1 9.2,-5.8 2.7,-5 0.6,-11.1 -4.5,-13.6 z"/><path id="path16" d="m 670.3,1011.4 h 1.8 c 2.8,0 4.9,-2.6 4.3,-5.4 l -3.9,-21.1 h -67.2 l 3.8,22.9 c 0.4,2.1 2.2,3.5 4.3,3.5 h 2.2 c -10.7,7.6 -18,19.6 -19.4,33.3 -0.3,2.6 1.8,4.9 4.4,4.9 h 84.8 c 2.6,0 4.7,-2.3 4.4,-4.9 -1.5,-13.6 -8.9,-25.5 -19.5,-33.2 z"/><path id="path18" d="m 751.6,419.4 c -0.2,-0.7 -0.4,-1.3 -0.7,-2 -0.1,-0.2 -0.2,-0.4 -0.3,-0.6 -0.2,-0.4 -0.4,-0.9 -0.6,-1.3 -0.1,-0.2 -0.2,-0.4 -0.3,-0.6 -0.2,-0.4 -0.5,-0.8 -0.7,-1.2 -0.1,-0.2 -0.2,-0.4 -0.4,-0.6 -0.3,-0.4 -0.6,-0.8 -0.9,-1.2 -0.1,-0.1 -0.2,-0.3 -0.3,-0.4 -0.4,-0.5 -0.9,-1 -1.3,-1.5 -0.1,-0.1 -0.2,-0.2 -0.3,-0.3 -0.4,-0.4 -0.8,-0.7 -1.1,-1 -0.2,-0.1 -0.3,-0.3 -0.5,-0.4 -0.3,-0.3 -0.7,-0.5 -1.1,-0.8 -0.2,-0.1 -0.4,-0.3 -0.6,-0.4 -0.4,-0.2 -0.8,-0.5 -1.1,-0.7 -0.2,-0.1 -0.4,-0.2 -0.5,-0.3 -0.5,-0.3 -1.1,-0.5 -1.6,-0.8 -0.1,0 -0.1,0 -0.1,-0.1 -0.6,-0.3 -1.2,-0.5 -1.8,-0.7 -0.2,-0.1 -0.4,-0.1 -0.6,-0.2 -0.4,-0.1 -0.9,-0.2 -1.3,-0.3 -0.2,-0.1 -0.5,-0.1 -0.7,-0.1 -0.4,-0.1 -0.9,-0.1 -1.3,-0.2 -0.2,0 -0.5,-0.1 -0.7,-0.1 -0.5,0 -0.9,-0.1 -1.4,-0.1 -0.2,0 -0.4,0 -0.6,0 -0.6,0 -1.3,0 -1.9,0.1 -0.2,0 -0.3,0 -0.5,0.1 -0.5,0.1 -1,0.1 -1.5,0.2 -0.2,0 -0.4,0.1 -0.6,0.1 -0.7,0.1 -1.3,0.3 -2,0.5 L 343.8,517.7 c -2.7,0.8 -5.1,2.1 -7.2,3.7 -0.9,0.7 -1.7,1.4 -2.4,2.2 -5.3,5.5 -7.5,13.6 -5.2,21.5 l 52.4,176.1 c 0.2,0.7 0.5,1.4 0.8,2.1 1.6,3.9 4.2,7.1 7.4,9.4 7.2,-20.6 26.3,-56.6 26.3,-56.6 0,0 6.6,13.7 13.1,29.5 3,7.2 6,14.9 8.3,21.9 L 789.1,622.8 c 8.2,-2.4 13.9,-9.3 15.4,-17.2 0.6,-3.3 0.5,-6.8 -0.5,-10.3 z M 532.5,626.3 c -11.2,20.7 -29.6,36 -52,43.3 -0.7,0.2 -1.4,0.5 -2.2,0.7 -8.6,2.6 -17.4,3.8 -26.1,3.8 -7.8,0 -15.6,-1 -23.1,-3 -6.9,-1.8 -13.7,-4.5 -20.1,-8 -21.4,-11.6 -37,-30.8 -44,-54.1 -1.6,-5.4 1.5,-11.2 6.9,-12.8 5.4,-1.6 11.2,1.5 12.8,6.9 5.4,18.1 17.5,32.9 34,41.9 3.3,1.8 6.8,3.3 10.3,4.6 13.9,4.9 29,5.3 43.4,1 2.8,-0.8 5.4,-1.8 8.1,-3 14.4,-6.2 26.3,-17 33.9,-31.1 9,-16.6 10.9,-35.6 5.6,-53.7 -1.6,-5.4 1.5,-11.2 6.9,-12.8 5.4,-1.6 11.2,1.5 12.8,6.9 6.9,23.3 4.3,48 -7.2,69.4 z m 188.7,-56.2 c -11.6,21.4 -30.8,37 -54.1,44 -8.6,2.6 -17.4,3.8 -26,3.8 -39.3,0 -75.6,-25.6 -87.4,-65.1 -1.6,-5.4 1.5,-11.2 6.9,-12.8 5.4,-1.6 11.2,1.5 12.8,6.9 11.1,37.3 50.5,58.6 87.7,47.5 18.1,-5.4 32.9,-17.5 41.9,-34 9,-16.6 10.9,-35.6 5.6,-53.7 -1.6,-5.4 1.5,-11.2 6.9,-12.8 5.4,-1.6 11.2,1.5 12.8,6.9 7.1,23.2 4.5,47.9 -7.1,69.3 z"/><path id="path20" d="m 780,1011.4 h 1.8 c 2.8,0 4.9,-2.6 4.3,-5.4 l -3.9,-21.1 v 0 H 715 l 3.8,22.9 c 0.4,2.1 2.2,3.5 4.3,3.5 h 2.2 c -10.7,7.6 -18,19.6 -19.4,33.3 -0.3,2.6 1.8,4.9 4.4,4.9 H 795 c 2.6,0 4.7,-2.3 4.4,-4.9 -1.4,-13.6 -8.8,-25.5 -19.4,-33.2 z"/></g><path id="path24" d="m 437.4,727.6 c -2.3,-7 -5.3,-14.6 -8.3,-21.9 -6.5,-15.8 -13.1,-29.5 -13.1,-29.5 0,0 -19.2,35.9 -26.3,56.6 0,0 0,0 0,0 -1.4,4.1 -2.4,7.6 -2.6,10.1 -1.4,15.1 9.7,28.5 24.8,30 6.3,0.6 12.3,-1 17.3,-4.2 6.9,-4.4 11.8,-11.8 12.7,-20.6 0.2,-4.4 -1.6,-11.9 -4.5,-20.5 z" class="st1"/></g></svg>